# xmcd
#
# Track frame offsets:
#	183
#	18893
#	35365
#	59720
#	85510
#	112818
#	138133
#	164823
#	184995
#	213450
#
# Disc length: 3027 seconds
#
# Revision: 1
# Processed by: cddbd v1.4PL0 Copyright (c) Steve Scherf et al.
# Submitted via: audiograbber 1.81.03
#
DISCID=830bd10a
DTITLE=A.C. Reed and Maurice John Vaughn - Compilation
DYEAR=1992
DGENRE=Blues
TTITLE0=A.C. Reed - My Buddy Budy Friend
TTITLE1=A.C. Reed - This Little Voice
TTITLE2=A.C. Reed - Boogie All Night
TTITLE3=A.C. Reed - Big Boss Man
TTITLE4=A.C. Reed - Help Me Spending My Gold
TTITLE5=Maurice John Vaughn - I Got Money
TTITLE6=Maurice John Vaughn - Everything I Do Got to Be Funky
TTITLE7=Maurice John Vaughn - Mojo Hand
TTITLE8=Maurice John Vaughn - Computer Took My Job
TTITLE9=Maurice John Vaughn - Mojo On Me
EXTD=
EXTT0=
EXTT1=
EXTT2=
EXTT3=
EXTT4=
EXTT5=
EXTT6=
EXTT7=
EXTT8=
EXTT9=
PLAYORDER=
